<?xml version="1.0" encoding="UTF-8" standalone="no"?>
<!-- Created with Inkscape (http://www.inkscape.org/) -->

<svg
   xmlns:dc="http://purl.org/dc/elements/1.1/"
   xmlns:cc="http://creativecommons.org/ns#"
   xmlns:rdf="http://www.w3.org/1999/02/22-rdf-syntax-ns#"
   xmlns:svg="http://www.w3.org/2000/svg"
   xmlns="http://www.w3.org/2000/svg"
   xmlns:sodipodi="http://sodipodi.sourceforge.net/DTD/sodipodi-0.dtd"
   xmlns:inkscape="http://www.inkscape.org/namespaces/inkscape"
   id="svg3103"
   version="1.1"
   inkscape:version="0.48.2 r9819"
   width="140"
   height="100"
   sodipodi:docname="blackButton@2x.svg">
  <metadata
     id="metadata3109">
    <rdf:RDF>
      <cc:Work
         rdf:about="">
        <dc:format>image/svg+xml</dc:format>
        <dc:type
           rdf:resource="http://purl.org/dc/dcmitype/StillImage" />
        <dc:title></dc:title>
      </cc:Work>
    </rdf:RDF>
  </metadata>
  <defs
     id="defs3107" />
  <sodipodi:namedview
     pagecolor="#ffffff"
     bordercolor="#666666"
     borderopacity="1"
     objecttolerance="10"
     gridtolerance="10"
     guidetolerance="10"
     inkscape:pageopacity="0"
     inkscape:pageshadow="2"
     inkscape:window-width="1441"
     inkscape:window-height="935"
     id="namedview3105"
     showgrid="false"
     inkscape:zoom="1.3033358"
     inkscape:cx="-134.81872"
     inkscape:cy="241.48487"
     inkscape:window-x="490"
     inkscape:window-y="29"
     inkscape:window-maximized="0"
     inkscape:current-layer="svg3103" />
  <rect
     style="fill:none;stroke:#808080;stroke-width:5.00189352000000031;stroke-linecap:butt;stroke-linejoin:round;stroke-miterlimit:100;stroke-opacity:1;stroke-dasharray:none"
     id="rect3113"
     width="338.23013"
     height="240.82254"
     x="-202.33995"
     y="-144.06261"
     ry="25.009468"
     rx="25.009468" />
  <g
     id="g4613"
     transform="matrix(2.9514334,0,0,3.0247335,-68.201057,174.61898)"
     style="fill:#808080;fill-opacity:1">
    <path
       style="fill:#808080;fill-opacity:1"
       d="m -20.415615,-52.416483 c -7.415685,-7.545441 -13.483063,-14.035825 -13.483063,-14.423077 0,-0.789855 1.040256,-1.91006 16.409496,-17.670652 l 10.909496,-11.187288 29.340504,0 29.340504,0 0,28.5 0,28.5 -29.516937,0 -29.516937,0 -13.483063,-13.718983 z M 14.101322,-53.1975 c 2.987424,-3.025 5.786918,-5.5 6.221097,-5.5 0.43418,0 3.114019,2.475 5.955197,5.5 2.841178,3.025 5.675537,5.5 6.298576,5.5 0.623038,0 2.664363,-1.580176 4.536278,-3.511502 l 3.403481,-3.511502 -5.707314,-5.767495 c -3.139023,-3.172123 -5.707315,-6.191398 -5.707315,-6.709501 0,-0.518103 2.568292,-3.537378 5.707315,-6.709501 l 5.707314,-5.767495 -3.403481,-3.511502 c -1.871915,-1.931326 -3.745822,-3.511502 -4.164239,-3.511502 -0.418416,0 -3.216063,2.475 -6.216993,5.5 -3.00093,3.025 -5.819766,5.5 -6.264079,5.5 -0.444313,0 -3.379357,-2.544683 -6.52232,-5.65485 l -5.714478,-5.65485 -3.492322,2.90485 c -1.920778,1.597667 -3.524811,3.438425 -3.56452,4.090573 -0.03971,0.652148 2.402803,3.621521 5.427803,6.598607 3.025,2.977087 5.5,5.745089 5.5,6.151117 0,0.406028 -2.475,3.193539 -5.5,6.194469 -3.025,3.00093 -5.5,5.712592 -5.5,6.025915 0,1.077648 5.501043,7.199847 6.53416,7.271972 0.568788,0.03971 3.478416,-2.402803 6.46584,-5.427803 z"
       id="path4627"
       inkscape:connector-curvature="0" />
    <path
       style="fill:#808080;fill-opacity:1"
       d="m -20.415615,-52.416483 c -7.415685,-7.545441 -13.483063,-14.025441 -13.483063,-14.4 0,-0.738534 1.265844,-2.099866 16.906066,-18.181357 l 10.406066,-10.69966 29.343934,0 29.343934,0 0,28.5 0,28.5 -29.516937,0 -29.516937,0 -13.483063,-13.718983 z M 14.101322,-53.1975 c 2.987424,-3.025 5.786918,-5.5 6.221097,-5.5 0.43418,0 3.114019,2.475 5.955197,5.5 2.841178,3.025 5.675537,5.5 6.298576,5.5 0.623038,0 2.664363,-1.580176 4.536278,-3.511502 l 3.403481,-3.511502 -5.707314,-5.767495 c -3.139023,-3.172123 -5.707315,-6.191398 -5.707315,-6.709501 0,-0.518103 2.568292,-3.537378 5.707315,-6.709501 l 5.707314,-5.767495 -3.403481,-3.511502 c -1.871915,-1.931326 -3.745822,-3.511502 -4.164239,-3.511502 -0.418416,0 -3.216063,2.475 -6.216993,5.5 -3.00093,3.025 -5.819766,5.5 -6.264079,5.5 -0.444313,0 -3.379357,-2.544683 -6.52232,-5.65485 l -5.714478,-5.65485 -3.492322,2.90485 c -1.920778,1.597667 -3.524811,3.457567 -3.56452,4.133111 -0.03971,0.675543 2.402803,3.703261 5.427803,6.728261 3.025,3.025 5.5,5.773652 5.5,6.108116 0,0.334464 -2.51806,3.027568 -5.595688,5.984676 -3.077628,2.957107 -5.440128,5.781474 -5.25,6.27637 0.738333,1.921852 5.399326,7.156638 6.379848,7.165242 0.568788,0.005 3.478416,-2.465926 6.46584,-5.490926 z"
       id="path4625"
       inkscape:connector-curvature="0" />
    <path
       style="fill:#808080;fill-opacity:1"
       d="m -20.415615,-52.416483 c -7.415685,-7.545441 -13.483063,-14.025441 -13.483063,-14.4 0,-0.738534 1.265844,-2.099866 16.906066,-18.181357 l 10.406066,-10.69966 29.343934,0 29.343934,0 0,28.5 0,28.5 -29.516937,0 -29.516937,0 -13.483063,-13.718983 z M 14.101322,-53.1975 c 2.987424,-3.025 5.786918,-5.5 6.221097,-5.5 0.43418,0 3.114019,2.475 5.955197,5.5 2.841178,3.025 5.675537,5.5 6.298576,5.5 0.623038,0 2.664363,-1.580176 4.536278,-3.511502 l 3.403481,-3.511502 -5.707314,-5.767495 c -3.139023,-3.172123 -5.707315,-6.191398 -5.707315,-6.709501 0,-0.518103 2.568292,-3.537378 5.707315,-6.709501 l 5.707314,-5.767495 -3.403481,-3.511502 c -1.871915,-1.931326 -3.804187,-3.511502 -4.293937,-3.511502 -0.489751,0 -3.306829,2.475 -6.260174,5.5 -2.953345,3.025 -5.713816,5.5 -6.13438,5.5 -0.420564,0 -3.336177,-2.544683 -6.47914,-5.65485 l -5.714478,-5.65485 -3.492322,2.90485 c -1.920778,1.597667 -3.524811,3.457567 -3.56452,4.133111 -0.03971,0.675543 2.402803,3.703261 5.427803,6.728261 3.025,3.025 5.5,5.725282 5.5,6.000626 0,0.275345 -2.515468,2.976224 -5.589928,6.001954 -3.074461,3.02573 -5.436961,5.898467 -5.25,6.383861 0.735887,1.910534 5.398653,7.139404 6.374088,7.147963 0.568788,0.005 3.478416,-2.465926 6.46584,-5.490926 z"
       id="path4623"
       inkscape:connector-curvature="0" />
    <path
       style="fill:#808080;fill-opacity:1"
       d="m -20.40145,-52.438823 c -7.423475,-7.557727 -13.497228,-14.008761 -13.497228,-14.33563 0,-0.599483 5.9124,-6.941227 19.739608,-21.173047 l 7.529667,-7.75 29.365362,0 29.365363,0 0,28.5 0,28.5 -29.502772,0 -29.502771,0 -13.497229,-13.741323 z M 14.101322,-53.1975 c 2.987424,-3.025 5.759076,-5.5 6.159226,-5.5 0.400151,0 3.068299,2.475 5.929218,5.5 2.860919,3.025 5.72312,5.5 6.360446,5.5 0.637327,0 2.690343,-1.580176 4.562258,-3.511502 l 3.403481,-3.511502 -5.707314,-5.767495 c -3.139023,-3.172123 -5.707315,-6.219819 -5.707315,-6.772659 0,-0.552839 2.475,-3.449418 5.5,-6.436842 3.025,-2.987424 5.5,-5.790895 5.5,-6.229936 0,-1.000817 -6.204148,-6.701071 -7.336623,-6.740751 -0.460142,-0.01612 -3.252995,2.445687 -6.20634,5.470687 -2.953345,3.025 -5.713816,5.5 -6.13438,5.5 -0.420564,0 -3.336177,-2.544683 -6.47914,-5.65485 l -5.714478,-5.65485 -3.492322,2.90485 c -1.920778,1.597667 -3.524811,3.457567 -3.56452,4.133111 -0.03971,0.675543 2.402803,3.703261 5.427803,6.728261 3.025,3.025 5.5,5.725282 5.5,6.000626 0,0.275345 -2.515468,2.976224 -5.589928,6.001954 -3.074461,3.02573 -5.436961,5.898467 -5.25,6.383861 0.735887,1.910534 5.398653,7.139404 6.374088,7.147963 0.568788,0.005 3.478416,-2.465926 6.46584,-5.490926 z"
       id="path4621"
       inkscape:connector-curvature="0" />
    <path
       style="fill:#808080;fill-opacity:1"
       d="m -20.356265,-52.429127 c -7.448327,-7.552395 -13.542413,-14.023861 -13.542413,-14.381036 0,-0.357175 6.133872,-7.002942 13.630827,-14.768373 l 13.630827,-14.118964 29.369173,0 29.369173,0 0,28.5 0,28.5 -29.457587,0 -29.457588,0 -13.542412,-13.731627 z m 34.67859,-0.98707 5.778997,-5.718696 5.778997,5.718696 c 3.178449,3.145284 6.194526,5.718697 6.702393,5.718697 1.113674,0 7.51861,-6.082026 7.51861,-7.139553 0,-0.410971 -2.475,-3.087972 -5.5,-5.948891 -3.025,-2.860919 -5.5,-5.714267 -5.5,-6.340773 0,-0.626507 2.475,-3.583359 5.5,-6.570783 3.025,-2.987424 5.5,-5.790895 5.5,-6.229936 0,-1.034224 -6.223116,-6.702426 -7.400666,-6.740751 -0.495366,-0.01612 -3.297839,2.445687 -6.227718,5.470687 -2.929879,3.025 -5.66153,5.5 -6.070337,5.5 -0.408806,0 -3.314799,-2.544683 -6.457762,-5.65485 l -5.714478,-5.65485 -3.492322,2.90485 c -1.920778,1.597667 -3.524811,3.447227 -3.56452,4.110131 -0.03971,0.662905 2.402803,3.740331 5.427803,6.838725 3.025,3.098393 5.5,5.818972 5.5,6.04573 0,0.226758 -2.527733,2.841134 -5.617184,5.809724 -3.089451,2.968591 -5.451951,5.831372 -5.25,6.361737 0.72447,1.902604 5.38688,7.220838 6.338187,7.229729 0.534051,0.005 3.571551,-2.564339 6.75,-5.709623 z"
       id="path4619"
       inkscape:connector-curvature="0" />
    <path
       style="fill:#808080;fill-opacity:1"
       d="m -20.356265,-52.429127 c -7.448327,-7.552395 -13.542413,-14.023861 -13.542413,-14.381036 0,-0.357175 6.133872,-7.002942 13.630827,-14.768373 l 13.630827,-14.118964 29.369173,0 29.369173,0 0,28.5 0,28.5 -29.457587,0 -29.457588,0 -13.542412,-13.731627 z m 34.67859,-0.98707 5.778997,-5.718696 5.778997,5.718696 c 3.178449,3.145284 6.194526,5.718697 6.702393,5.718697 1.113674,0 7.51861,-6.082026 7.51861,-7.139553 0,-0.410971 -2.475,-3.087972 -5.5,-5.948891 -3.025,-2.860919 -5.5,-5.714267 -5.5,-6.340773 0,-0.626507 2.475,-3.583359 5.5,-6.570783 3.025,-2.987424 5.467511,-5.897052 5.427803,-6.46584 -0.03971,-0.568788 -1.594485,-2.298316 -3.455059,-3.843395 -4.02511,-3.342579 -5.102571,-2.985761 -11.305986,3.744151 -2.314372,2.510796 -4.551553,4.565084 -4.971513,4.565084 -0.419961,0 -3.207821,-2.475 -6.195245,-5.5 -2.987424,-3.025 -5.71781,-5.5 -6.067526,-5.5 -1.041349,0 -6.932474,5.93635 -6.932474,6.985693 0,0.532563 2.475,3.52365 5.5,6.646859 3.025,3.12321 5.5,5.842853 5.5,6.043652 0,0.200799 -2.475,2.716162 -5.5,5.589695 -3.025,2.873534 -5.5,5.754717 -5.5,6.402629 0,1.619506 4.916054,7.331472 6.309896,7.331472 0.62266,0 3.732658,-2.573413 6.911107,-5.718697 z"
       id="path4617"
       inkscape:connector-curvature="0" />
    <path
       style="fill:#808080;fill-opacity:1"
       d="m -20.356265,-52.429127 c -7.448327,-7.552395 -13.542413,-14.028674 -13.542413,-14.39173 0,-0.363056 6.1875,-7.013113 13.75,-14.777903 l 13.75,-14.117801 29.25,0.0095 29.25,0.0095 0,28.5 0,28.5 -29.457587,0 -29.457588,0 -13.542412,-13.731627 z m 34.817026,-1.018373 5.572191,-5.75 5.813183,5.75 c 3.19725,3.1625 6.22871,5.75 6.736577,5.75 1.113674,0 7.51861,-6.082026 7.51861,-7.139553 0,-0.410971 -2.475,-3.087972 -5.5,-5.948891 -3.025,-2.860919 -5.5,-5.714267 -5.5,-6.340773 0,-0.626507 2.475,-3.583359 5.5,-6.570783 3.025,-2.987424 5.467511,-5.897052 5.427803,-6.46584 -0.03971,-0.568788 -1.594485,-2.298316 -3.455059,-3.843395 -4.02511,-3.342579 -5.102571,-2.985761 -11.305986,3.744151 -2.314372,2.510796 -4.551553,4.565084 -4.971513,4.565084 -0.419961,0 -3.207821,-2.475 -6.195245,-5.5 -2.987424,-3.025 -5.71781,-5.5 -6.067526,-5.5 -1.126161,0 -6.932474,5.979145 -6.932474,7.138828 0,0.616788 2.475,3.576752 5.5,6.577699 3.025,3.000947 5.5,5.616912 5.5,5.813256 0,0.196344 -2.475,2.697742 -5.5,5.558661 -3.025,2.860919 -5.5,5.776868 -5.5,6.479888 0,1.800833 4.911681,7.431668 6.482517,7.431668 0.717601,0 3.812216,-2.5875 6.876922,-5.75 z"
       id="path4615"
       inkscape:connector-curvature="0" />
  </g>
</svg>
